<svg xmlns="http://www.w3.org/2000/svg" xmlns:xlink="http://www.w3.org/1999/xlink" width="2000" zoomAndPan="magnify" viewBox="0 0 1500 1499.999933" height="2000" preserveAspectRatio="xMidYMid meet" version="1.0"><defs><g/><clipPath id="3fa40cffe3"><path d="M 132 331 L 432 331 L 432 836 L 132 836 Z M 132 331 " clip-rule="nonzero"/></clipPath><clipPath id="7e25ce2634"><path d="M 429.34375 835.761719 C 428.730469 834.265625 428.378906 833.386719 428.027344 832.417969 C 422.398438 816.941406 411.671875 805.773438 398.304688 796.894531 C 384.410156 787.660156 369.023438 781.417969 353.457031 775.789062 C 337.191406 769.984375 321.011719 764.09375 304.566406 758.90625 C 287.507812 753.453125 270.097656 748.792969 252.949219 743.605469 C 224.195312 734.8125 197.375 722.238281 174.6875 702.101562 C 154.816406 684.515625 141.625 662.882812 135.207031 637.117188 C 131.335938 621.554688 131.160156 605.8125 133.710938 589.984375 C 138.195312 561.582031 150.332031 536.433594 166.070312 512.777344 C 179.523438 492.640625 195.882812 474.878906 212.414062 457.378906 C 228.328125 440.585938 244.332031 423.789062 259.808594 406.554688 C 279.507812 384.570312 295.863281 360.214844 307.382812 332.867188 C 307.644531 332.25 307.996094 331.722656 308.875 331.195312 C 308.964844 334.625 309.316406 337.964844 309.226562 341.394531 C 308.964844 362.410156 303.335938 382.109375 294.628906 401.101562 C 286.011719 419.921875 274.230469 436.714844 262.359375 453.511719 C 250.136719 470.746094 237.648438 487.894531 225.953125 505.480469 C 216.019531 520.429688 208.542969 536.609375 203.441406 553.933594 C 198.519531 570.640625 196.320312 587.609375 198.78125 604.933594 C 201.507812 623.664062 209.597656 639.929688 222.171875 654 C 236.945312 670.53125 255.058594 682.492188 274.84375 691.8125 C 295.070312 701.398438 315.648438 710.101562 335.960938 719.425781 C 354.777344 728.128906 373.15625 737.800781 389.6875 750.464844 C 406.394531 763.304688 420.023438 778.691406 427.324219 798.917969 C 431.457031 810.4375 432.421875 822.308594 430.222656 834.355469 C 430.222656 834.617188 430.046875 834.792969 429.519531 835.671875 " clip-rule="nonzero"/></clipPath><clipPath id="84393b3a70"><path d="M 0 0 L 300 0 L 300 504.917969 L 0 504.917969 Z M 0 0 " clip-rule="nonzero"/></clipPath><clipPath id="fec18436ee"><path d="M 297.34375 504.761719 C 296.730469 503.265625 296.378906 502.386719 296.027344 501.417969 C 290.398438 485.941406 279.671875 474.773438 266.304688 465.894531 C 252.410156 456.660156 237.023438 450.417969 221.457031 444.789062 C 205.191406 438.984375 189.011719 433.09375 172.566406 427.90625 C 155.507812 422.453125 138.097656 417.792969 120.949219 412.605469 C 92.195312 403.8125 65.375 391.238281 42.6875 371.101562 C 22.816406 353.515625 9.625 331.882812 3.207031 306.117188 C -0.664062 290.554688 -0.839844 274.8125 1.710938 258.984375 C 6.195312 230.582031 18.332031 205.433594 34.070312 181.777344 C 47.523438 161.640625 63.882812 143.878906 80.414062 126.378906 C 96.328125 109.585938 112.332031 92.789062 127.808594 75.554688 C 147.507812 53.570312 163.863281 29.214844 175.382812 1.867188 C 175.644531 1.25 175.996094 0.722656 176.875 0.195312 C 176.964844 3.625 177.316406 6.964844 177.226562 10.394531 C 176.964844 31.410156 171.335938 51.109375 162.628906 70.101562 C 154.011719 88.921875 142.230469 105.714844 130.359375 122.511719 C 118.136719 139.746094 105.648438 156.894531 93.953125 174.480469 C 84.019531 189.429688 76.542969 205.609375 71.441406 222.933594 C 66.519531 239.640625 64.320312 256.609375 66.78125 273.933594 C 69.507812 292.664062 77.597656 308.929688 90.171875 323 C 104.945312 339.53125 123.058594 351.492188 142.84375 360.8125 C 163.070312 370.398438 183.648438 379.101562 203.960938 388.425781 C 222.777344 397.128906 241.15625 406.800781 257.6875 419.464844 C 274.394531 432.304688 288.023438 447.691406 295.324219 467.917969 C 299.457031 479.4375 300.421875 491.308594 298.222656 503.355469 C 298.222656 503.617188 298.046875 503.792969 297.519531 504.671875 " clip-rule="nonzero"/></clipPath><clipPath id="8a8c06e068"><rect x="0" width="300" y="0" height="505"/></clipPath><clipPath id="e1377ffc88"><path d="M 105 676.277344 L 428 676.277344 L 428 1016 L 105 1016 Z M 105 676.277344 " clip-rule="nonzero"/></clipPath><clipPath id="28c8e1e017"><path d="M 116.300781 676.601562 C 116.652344 682.050781 116.742188 686.976562 117.355469 691.8125 C 118.851562 704.5625 123.597656 716.171875 130.195312 727.074219 C 141.449219 745.714844 156.925781 760.226562 175.039062 771.921875 C 193.15625 783.617188 212.941406 792.496094 233.339844 799.621094 C 256.203125 807.535156 279.152344 815.007812 301.929688 823.011719 C 323.738281 830.574219 344.929688 839.628906 364.363281 852.378906 C 386.082031 866.539062 403.933594 884.386719 415.804688 907.777344 C 430.753906 937.238281 430.664062 966.871094 416.242188 996.417969 C 413.339844 1002.308594 409.648438 1007.757812 406.304688 1013.386719 C 405.867188 1014.089844 405.339844 1014.707031 404.195312 1015.234375 C 404.285156 1014.265625 404.371094 1013.300781 404.460938 1012.421875 C 406.042969 995.886719 402.789062 980.765625 391.621094 968.011719 C 378.34375 952.800781 361.8125 941.898438 344.136719 932.574219 C 320.921875 920.351562 296.476562 911.03125 272.558594 900.566406 C 246.355469 889.222656 220.0625 878.058594 194.121094 866.011719 C 174.511719 856.863281 156.664062 844.816406 140.921875 829.957031 C 124.390625 814.394531 113.136719 795.664062 108.296875 773.328125 C 105.398438 759.960938 104.871094 746.417969 105.835938 732.878906 C 107.15625 714.234375 111.023438 695.945312 115.859375 677.917969 C 115.949219 677.65625 116.035156 677.304688 116.390625 676.601562 " clip-rule="nonzero"/></clipPath><clipPath id="dbd4ddba76"><path d="M 0 0.558594 L 323 0.558594 L 323 339.441406 L 0 339.441406 Z M 0 0.558594 " clip-rule="nonzero"/></clipPath><clipPath id="cf111687a8"><path d="M 11.300781 0.601562 C 11.652344 6.050781 11.742188 10.976562 12.355469 15.8125 C 13.851562 28.5625 18.597656 40.171875 25.195312 51.074219 C 36.449219 69.714844 51.925781 84.226562 70.039062 95.921875 C 88.15625 107.617188 107.941406 116.496094 128.339844 123.621094 C 151.203125 131.535156 174.152344 139.007812 196.929688 147.011719 C 218.738281 154.574219 239.929688 163.628906 259.363281 176.378906 C 281.082031 190.539062 298.933594 208.386719 310.804688 231.777344 C 325.753906 261.238281 325.664062 290.871094 311.242188 320.417969 C 308.339844 326.308594 304.648438 331.757812 301.304688 337.386719 C 300.867188 338.089844 300.339844 338.707031 299.195312 339.234375 C 299.285156 338.265625 299.371094 337.300781 299.460938 336.421875 C 301.042969 319.886719 297.789062 304.765625 286.621094 292.011719 C 273.34375 276.800781 256.8125 265.898438 239.136719 256.574219 C 215.921875 244.351562 191.476562 235.03125 167.558594 224.566406 C 141.355469 213.222656 115.0625 202.058594 89.121094 190.011719 C 69.511719 180.863281 51.664062 168.816406 35.921875 153.957031 C 19.390625 138.394531 8.136719 119.664062 3.296875 97.328125 C 0.398438 83.960938 -0.128906 70.417969 0.835938 56.878906 C 2.15625 38.234375 6.023438 19.945312 10.859375 1.917969 C 10.949219 1.65625 11.035156 1.304688 11.390625 0.601562 " clip-rule="nonzero"/></clipPath><clipPath id="18d69653c4"><rect x="0" width="323" y="0" height="340"/></clipPath><clipPath id="2e361bd9f1"><path d="M 581 495.363281 L 702 495.363281 L 702 639 L 581 639 Z M 581 495.363281 " clip-rule="nonzero"/></clipPath><clipPath id="1384cd348b"><path d="M 687.695312 598.867188 L 701.0625 625.511719 C 701.0625 625.511719 685.761719 638.171875 655.863281 638.171875 C 616.996094 638.171875 581.382812 606.515625 581.382812 567.121094 C 581.382812 527.640625 616.90625 495.632812 655.863281 495.632812 C 685.671875 495.632812 701.0625 508.292969 701.0625 508.292969 L 687.695312 534.9375 C 687.695312 534.9375 676.703125 526.410156 660.699219 526.410156 C 629.21875 526.410156 615.324219 548.390625 615.324219 566.769531 C 615.324219 585.238281 629.132812 607.308594 660.699219 607.308594 C 676.703125 607.308594 687.695312 598.777344 687.695312 598.777344 " clip-rule="nonzero"/></clipPath><clipPath id="49ab42e0cf"><path d="M 0.28125 0.601562 L 120.28125 0.601562 L 120.28125 143.398438 L 0.28125 143.398438 Z M 0.28125 0.601562 " clip-rule="nonzero"/></clipPath><clipPath id="046d495ea9"><path d="M 106.695312 103.867188 L 120.0625 130.511719 C 120.0625 130.511719 104.761719 143.171875 74.863281 143.171875 C 35.996094 143.171875 0.382812 111.515625 0.382812 72.121094 C 0.382812 32.640625 35.90625 0.632812 74.863281 0.632812 C 104.671875 0.632812 120.0625 13.292969 120.0625 13.292969 L 106.695312 39.9375 C 106.695312 39.9375 95.703125 31.410156 79.699219 31.410156 C 48.21875 31.410156 34.324219 53.390625 34.324219 71.769531 C 34.324219 90.238281 48.132812 112.308594 79.699219 112.308594 C 95.703125 112.308594 106.695312 103.777344 106.695312 103.777344 " clip-rule="nonzero"/></clipPath><clipPath id="3fb79aac6c"><rect x="0" width="121" y="0" height="144"/></clipPath><clipPath id="7a4ff8f0a2"><path d="M 708 547 L 784 547 L 784 636 L 708 636 Z M 708 547 " clip-rule="nonzero"/></clipPath><clipPath id="bf82db3595"><path d="M 708.976562 550.152344 L 738.519531 550.152344 L 738.519531 562.460938 L 738.871094 562.460938 C 738.871094 562.460938 748.191406 547.601562 765.078125 547.601562 C 776.070312 547.601562 783.71875 552.964844 783.71875 552.964844 L 771.40625 577.9375 C 771.40625 577.9375 765.957031 573.277344 756.109375 573.277344 C 740.808594 573.277344 738.609375 588.402344 738.609375 590.601562 L 738.609375 635.621094 L 708.976562 635.621094 Z M 708.976562 550.152344 " clip-rule="nonzero"/></clipPath><clipPath id="710b3ba70f"><path d="M 0.960938 0.441406 L 75.839844 0.441406 L 75.839844 88.761719 L 0.960938 88.761719 Z M 0.960938 0.441406 " clip-rule="nonzero"/></clipPath><clipPath id="1140ace87a"><path d="M 0.976562 3.152344 L 30.519531 3.152344 L 30.519531 15.460938 L 30.871094 15.460938 C 30.871094 15.460938 40.191406 0.601562 57.078125 0.601562 C 68.070312 0.601562 75.71875 5.964844 75.71875 5.964844 L 63.40625 30.9375 C 63.40625 30.9375 57.957031 26.277344 48.109375 26.277344 C 32.808594 26.277344 30.609375 41.402344 30.609375 43.601562 L 30.609375 88.621094 L 0.976562 88.621094 Z M 0.976562 3.152344 " clip-rule="nonzero"/></clipPath><clipPath id="5ac6619a4f"><rect x="0" width="76" y="0" height="89"/></clipPath><clipPath id="ee590dd3ab"><path d="M 780 547 L 874 547 L 874 639 L 780 639 Z M 780 547 " clip-rule="nonzero"/></clipPath><clipPath id="f3ed39b01a"><path d="M 844.746094 580.664062 C 843.425781 571.695312 837.269531 566.859375 828.566406 566.859375 C 818.363281 566.859375 812.738281 572.839844 812.210938 580.664062 Z M 811.417969 597.019531 C 811.417969 610.210938 822.410156 614.695312 829.882812 614.695312 C 839.378906 614.695312 843.601562 612.847656 850.722656 605.199219 L 872.09375 615.835938 C 862.417969 632.015625 846.765625 638.171875 827.773438 638.171875 C 801.921875 638.171875 780.730469 617.859375 780.730469 592.976562 C 780.730469 568 801.921875 547.6875 827.773438 547.6875 C 853.800781 547.6875 873.585938 562.988281 873.585938 592.976562 C 873.585938 594.117188 873.585938 595.964844 873.410156 597.019531 Z M 811.417969 597.019531 " clip-rule="nonzero"/></clipPath><clipPath id="bcc4124602"><path d="M 0.71875 0.679688 L 93.601562 0.679688 L 93.601562 91.398438 L 0.71875 91.398438 Z M 0.71875 0.679688 " clip-rule="nonzero"/></clipPath><clipPath id="574fa059e0"><path d="M 64.746094 33.664062 C 63.425781 24.695312 57.269531 19.859375 48.566406 19.859375 C 38.363281 19.859375 32.738281 25.839844 32.210938 33.664062 Z M 31.417969 50.019531 C 31.417969 63.210938 42.410156 67.695312 49.882812 67.695312 C 59.378906 67.695312 63.601562 65.847656 70.722656 58.199219 L 92.09375 68.835938 C 82.417969 85.015625 66.765625 91.171875 47.773438 91.171875 C 21.921875 91.171875 0.730469 70.859375 0.730469 45.976562 C 0.730469 21 21.921875 0.6875 47.773438 0.6875 C 73.800781 0.6875 93.585938 15.988281 93.585938 45.976562 C 93.585938 47.117188 93.585938 48.964844 93.410156 50.019531 Z M 31.417969 50.019531 " clip-rule="nonzero"/></clipPath><clipPath id="193b4119c1"><rect x="0" width="94" y="0" height="92"/></clipPath><clipPath id="b0c7677390"><path d="M 983 518 L 1047 518 L 1047 639 L 983 639 Z M 983 518 " clip-rule="nonzero"/></clipPath><clipPath id="b2a96323d0"><path d="M 995.992188 518.320312 L 1025.449219 518.320312 L 1025.449219 550.152344 L 1043.476562 550.152344 L 1043.476562 572.660156 L 1025.449219 572.660156 L 1025.449219 599.832031 C 1025.449219 607.835938 1027.472656 611.703125 1032.132812 611.703125 C 1036 611.703125 1039.429688 609.066406 1039.429688 609.066406 L 1046.730469 632.898438 C 1046.730469 632.898438 1037.230469 638.261719 1025.097656 638.261719 C 1001.617188 638.261719 995.902344 620.761719 995.902344 605.636719 L 995.902344 572.660156 L 983.59375 572.660156 L 983.59375 550.152344 L 995.902344 550.152344 Z M 995.992188 518.320312 " clip-rule="nonzero"/></clipPath><clipPath id="421f95054b"><path d="M 0.519531 0.160156 L 63.878906 0.160156 L 63.878906 120.398438 L 0.519531 120.398438 Z M 0.519531 0.160156 " clip-rule="nonzero"/></clipPath><clipPath id="50e103d37e"><path d="M 12.992188 0.320312 L 42.449219 0.320312 L 42.449219 32.152344 L 60.476562 32.152344 L 60.476562 54.660156 L 42.449219 54.660156 L 42.449219 81.832031 C 42.449219 89.835938 44.472656 93.703125 49.132812 93.703125 C 53 93.703125 56.429688 91.066406 56.429688 91.066406 L 63.730469 114.898438 C 63.730469 114.898438 54.230469 120.261719 42.097656 120.261719 C 18.617188 120.261719 12.902344 102.761719 12.902344 87.636719 L 12.902344 54.660156 L 0.59375 54.660156 L 0.59375 32.152344 L 12.902344 32.152344 Z M 12.992188 0.320312 " clip-rule="nonzero"/></clipPath><clipPath id="b17c758a82"><rect x="0" width="64" y="0" height="121"/></clipPath><clipPath id="1af1ab889c"><path d="M 1084 550 L 1197 550 L 1197 636 L 1084 636 Z M 1084 550 " clip-rule="nonzero"/></clipPath><clipPath id="cdf1b2e63a"><path d="M 1140.464844 596.667969 L 1161.304688 550.152344 L 1196.304688 550.152344 L 1150.492188 635.621094 L 1130.441406 635.621094 L 1084.628906 550.152344 L 1119.625 550.152344 Z M 1140.464844 596.667969 " clip-rule="nonzero"/></clipPath><clipPath id="bf7e9ba3e8"><path d="M 0.558594 0.078125 L 112.398438 0.078125 L 112.398438 85.761719 L 0.558594 85.761719 Z M 0.558594 0.078125 " clip-rule="nonzero"/></clipPath><clipPath id="6556f62051"><path d="M 56.464844 46.667969 L 77.304688 0.152344 L 112.304688 0.152344 L 66.492188 85.621094 L 46.441406 85.621094 L 0.628906 0.152344 L 35.625 0.152344 Z M 56.464844 46.667969 " clip-rule="nonzero"/></clipPath><clipPath id="f7670848d5"><rect x="0" width="113" y="0" height="86"/></clipPath><clipPath id="b9002b5667"><path d="M 1192.128906 547 L 1285.601562 547 L 1285.601562 639 L 1192.128906 639 Z M 1192.128906 547 " clip-rule="nonzero"/></clipPath><clipPath id="74e837080e"><path d="M 1256.1875 580.664062 C 1254.867188 571.695312 1248.710938 566.859375 1240.007812 566.859375 C 1229.808594 566.859375 1224.179688 572.839844 1223.652344 580.664062 Z M 1222.859375 597.019531 C 1222.859375 610.210938 1233.851562 614.695312 1241.328125 614.695312 C 1250.824219 614.695312 1255.042969 612.847656 1262.167969 605.199219 L 1283.535156 615.835938 C 1273.863281 632.015625 1258.210938 638.171875 1239.214844 638.171875 C 1213.363281 638.171875 1192.171875 617.859375 1192.171875 592.976562 C 1192.171875 568 1213.363281 547.6875 1239.214844 547.6875 C 1265.246094 547.6875 1285.03125 562.988281 1285.03125 592.976562 C 1285.03125 594.117188 1285.03125 595.964844 1284.851562 597.019531 Z M 1222.859375 597.019531 " clip-rule="nonzero"/></clipPath><clipPath id="afa62db48c"><path d="M 0.128906 0.679688 L 93.199219 0.679688 L 93.199219 91.398438 L 0.128906 91.398438 Z M 0.128906 0.679688 " clip-rule="nonzero"/></clipPath><clipPath id="e0c3604f49"><path d="M 64.1875 33.664062 C 62.867188 24.695312 56.710938 19.859375 48.007812 19.859375 C 37.808594 19.859375 32.179688 25.839844 31.652344 33.664062 Z M 30.859375 50.019531 C 30.859375 63.210938 41.851562 67.695312 49.328125 67.695312 C 58.824219 67.695312 63.042969 65.847656 70.167969 58.199219 L 91.535156 68.835938 C 81.863281 85.015625 66.210938 91.171875 47.214844 91.171875 C 21.363281 91.171875 0.171875 70.859375 0.171875 45.976562 C 0.171875 21 21.363281 0.6875 47.214844 0.6875 C 73.246094 0.6875 93.03125 15.988281 93.03125 45.976562 C 93.03125 47.117188 93.03125 48.964844 92.851562 50.019531 Z M 30.859375 50.019531 " clip-rule="nonzero"/></clipPath><clipPath id="1b1ca52eb4"><rect x="0" width="94" y="0" height="92"/></clipPath><clipPath id="f5e30474c4"><path d="M 876 515 L 981 515 L 981 644 L 876 644 Z M 876 515 " clip-rule="nonzero"/></clipPath><clipPath id="ceeb3465f8"><path d="M 958.089844 635.886719 C 951.410156 639.226562 944.726562 641.164062 937.515625 642.042969 C 930.304688 642.921875 923.886719 643.183594 918.257812 643.183594 C 907.089844 643.183594 897.679688 640.371094 889.328125 634.304688 C 880.972656 628.238281 876.753906 618.386719 876.753906 604.496094 C 876.753906 591.65625 880.621094 582.511719 888.183594 576.972656 C 895.746094 571.429688 905.15625 567.738281 916.851562 565.804688 C 918.519531 565.804688 920.191406 565.539062 922.390625 565.277344 C 924.589844 564.746094 927.140625 564.394531 929.953125 563.867188 C 943.320312 562.199219 950 558.328125 950 552.171875 C 950 547.425781 947.804688 544.347656 943.054688 543.027344 C 938.304688 541.710938 933.910156 541.09375 929.953125 541.09375 C 925.46875 541.09375 921.597656 541.621094 918.257812 543.027344 C 914.914062 544.171875 912.367188 546.632812 911.046875 549.976562 L 880.09375 549.976562 C 881.5 540.476562 885.632812 532.386719 892.933594 526.320312 C 901.285156 519.375 913.246094 515.769531 928.546875 515.769531 C 945.78125 515.769531 958.617188 518.847656 967.238281 524.648438 C 976.117188 530.804688 980.601562 539.421875 980.601562 550.238281 L 980.601562 592.269531 C 980.601562 604.496094 978.402344 613.992188 973.917969 620.9375 C 969.433594 627.882812 964.160156 632.898438 958.089844 635.972656 M 950.527344 579.433594 C 946.394531 581.632812 940.242188 583.566406 932.679688 585.238281 C 925.46875 586.90625 921.773438 587.785156 921.773438 587.785156 C 916.5 589.195312 912.277344 591.128906 909.816406 593.589844 C 907.617188 596.933594 906.738281 600.273438 906.738281 603.613281 C 906.738281 608.363281 908.144531 611.96875 910.957031 614.78125 C 913.421875 617.332031 917.640625 618.386719 922.917969 618.386719 C 931.535156 618.386719 938.21875 615.925781 943.230469 611.175781 C 947.980469 606.164062 950.441406 599.480469 950.441406 590.863281 Z M 950.527344 579.433594 " clip-rule="nonzero"/></clipPath><clipPath id="97001b2719"><path d="M 0.71875 0.761719 L 104.640625 0.761719 L 104.640625 128.199219 L 0.71875 128.199219 Z M 0.71875 0.761719 " clip-rule="nonzero"/></clipPath><clipPath id="02d4cf81dc"><path d="M 82.089844 120.886719 C 75.410156 124.226562 68.726562 126.164062 61.515625 127.042969 C 54.304688 127.921875 47.886719 128.183594 42.257812 128.183594 C 31.089844 128.183594 21.679688 125.371094 13.328125 119.304688 C 4.972656 113.238281 0.753906 103.386719 0.753906 89.496094 C 0.753906 76.65625 4.621094 67.511719 12.183594 61.972656 C 19.746094 56.429688 29.15625 52.738281 40.851562 50.804688 C 42.519531 50.804688 44.191406 50.539062 46.390625 50.277344 C 48.589844 49.746094 51.140625 49.394531 53.953125 48.867188 C 67.320312 47.199219 74 43.328125 74 37.171875 C 74 32.425781 71.804688 29.347656 67.054688 28.027344 C 62.304688 26.710938 57.910156 26.09375 53.953125 26.09375 C 49.46875 26.09375 45.597656 26.621094 42.257812 28.027344 C 38.914062 29.171875 36.367188 31.632812 35.046875 34.976562 L 4.09375 34.976562 C 5.5 25.476562 9.632812 17.386719 16.933594 11.320312 C 25.285156 4.375 37.246094 0.769531 52.546875 0.769531 C 69.78125 0.769531 82.617188 3.847656 91.238281 9.648438 C 100.117188 15.804688 104.601562 24.421875 104.601562 35.238281 L 104.601562 77.269531 C 104.601562 89.496094 102.402344 98.992188 97.917969 105.9375 C 93.433594 112.882812 88.160156 117.898438 82.089844 120.972656 M 74.527344 64.433594 C 70.394531 66.632812 64.242188 68.566406 56.679688 70.238281 C 49.46875 71.90625 45.773438 72.785156 45.773438 72.785156 C 40.5 74.195312 36.277344 76.128906 33.816406 78.589844 C 31.617188 81.933594 30.738281 85.273438 30.738281 88.613281 C 30.738281 93.363281 32.144531 96.96875 34.957031 99.78125 C 37.421875 102.332031 41.640625 103.386719 46.917969 103.386719 C 55.535156 103.386719 62.21875 100.925781 67.230469 96.175781 C 71.980469 91.164062 74.441406 84.480469 74.441406 75.863281 Z M 74.527344 64.433594 " clip-rule="nonzero"/></clipPath><clipPath id="95391242a2"><rect x="0" width="105" y="0" height="129"/></clipPath><clipPath id="ba28c83867"><path d="M 1053.429688 497 L 1085 497 L 1085 753 L 1053.429688 753 Z M 1053.429688 497 " clip-rule="nonzero"/></clipPath><clipPath id="ac02623132"><path d="M 1053.675781 497.300781 L 1069.503906 497.300781 C 1073.371094 497.300781 1076.800781 498.886719 1079.96875 501.523438 C 1083.046875 504.601562 1084.1875 508.117188 1084.1875 511.988281 L 1084.1875 521.308594 L 1053.675781 521.308594 Z M 1053.675781 531.332031 L 1069.503906 531.332031 C 1073.371094 531.332031 1076.800781 532.828125 1079.96875 535.554688 C 1083.046875 538.632812 1084.1875 542.148438 1084.1875 546.019531 L 1084.1875 752.398438 L 1053.675781 752.398438 Z M 1053.675781 531.332031 " clip-rule="nonzero"/></clipPath><clipPath id="6e3b1b5bd8"><path d="M 0.601562 0.28125 L 31.320312 0.28125 L 31.320312 255.398438 L 0.601562 255.398438 Z M 0.601562 0.28125 " clip-rule="nonzero"/></clipPath><clipPath id="fbe73716ff"><path d="M 0.675781 0.300781 L 16.503906 0.300781 C 20.371094 0.300781 23.800781 1.886719 26.96875 4.523438 C 30.046875 7.601562 31.1875 11.117188 31.1875 14.988281 L 31.1875 24.308594 L 0.675781 24.308594 Z M 0.675781 34.332031 L 16.503906 34.332031 C 20.371094 34.332031 23.800781 35.828125 26.96875 38.554688 C 30.046875 41.632812 31.1875 45.148438 31.1875 49.019531 L 31.1875 255.398438 L 0.675781 255.398438 Z M 0.675781 34.332031 " clip-rule="nonzero"/></clipPath><clipPath id="92f1fda409"><rect x="0" width="32" y="0" height="256"/></clipPath><clipPath id="2cc30ea0b0"><path d="M 1053.429688 748 L 1080 748 L 1080 749 L 1053.429688 749 Z M 1053.429688 748 " clip-rule="nonzero"/></clipPath><clipPath id="e60ddccb51"><path d="M 1079.96875 748.96875 L 1053.851562 748.003906 " clip-rule="nonzero"/></clipPath><clipPath id="b812dcfb0e"><path d="M 0.839844 0 L 27 0 L 27 1 L 0.839844 1 Z M 0.839844 0 " clip-rule="nonzero"/></clipPath><clipPath id="03012da690"><path d="M 26.96875 0.96875 L 0.851562 0.00390625 " clip-rule="nonzero"/></clipPath><clipPath id="ad6d9167db"><rect x="0" width="27" y="0" height="1"/></clipPath><clipPath id="73b1c59c75"><path d="M 780 620 L 883 620 L 883 760.703125 L 780 760.703125 Z M 780 620 " clip-rule="nonzero"/></clipPath><clipPath id="b95234281a"><path d="M 847.207031 729.273438 C 842.898438 735.078125 837.621094 737.800781 830.234375 737.273438 C 822.761719 737.273438 816.957031 734.109375 813.175781 728.21875 C 809.394531 722.324219 807.371094 714.410156 807.902344 703.773438 C 808.429688 694.1875 810.539062 686.800781 814.757812 681.4375 C 818.453125 676.160156 824.34375 673.523438 831.203125 673.523438 C 838.675781 673.523438 843.953125 676.6875 848.175781 681.964844 C 851.867188 687.769531 854.066406 695.242188 853.449219 704.828125 C 853.449219 715.996094 851.339844 723.996094 847.117188 729.273438 M 878.949219 625.6875 C 876.839844 623.046875 873.675781 621.378906 869.894531 621.378906 L 856.089844 620.851562 L 854.503906 666.574219 C 851.867188 661.210938 847.648438 656.992188 842.28125 653.824219 C 837.007812 651.1875 831.113281 649.605469 824.785156 649.078125 C 812.035156 649.078125 801.394531 653.824219 793.480469 663.9375 C 785.566406 674.050781 781.257812 687.328125 780.730469 704.300781 C 780.203125 721.269531 783.367188 734.546875 790.839844 744.660156 C 795.0625 749.9375 799.898438 753.71875 806.757812 756.355469 C 813.089844 758.996094 820.035156 760.050781 826.894531 760.578125 C 839.644531 760.578125 851.867188 757.9375 863.035156 751.519531 C 874.203125 745.101562 880.007812 732.351562 880.535156 713.269531 L 882.644531 635.183594 C 883.171875 632.015625 881.589844 628.851562 878.949219 625.597656 " clip-rule="nonzero"/></clipPath><clipPath id="02faa2d76a"><path d="M 0 0.640625 L 103 0.640625 L 103 140.703125 L 0 140.703125 Z M 0 0.640625 " clip-rule="nonzero"/></clipPath><clipPath id="d6fb776d94"><path d="M 67.207031 109.273438 C 62.898438 115.078125 57.621094 117.800781 50.234375 117.273438 C 42.761719 117.273438 36.957031 114.109375 33.175781 108.21875 C 29.394531 102.324219 27.371094 94.410156 27.902344 83.773438 C 28.429688 74.1875 30.539062 66.800781 34.757812 61.4375 C 38.453125 56.160156 44.34375 53.523438 51.203125 53.523438 C 58.675781 53.523438 63.953125 56.6875 68.175781 61.964844 C 71.867188 67.769531 74.066406 75.242188 73.449219 84.828125 C 73.449219 95.996094 71.339844 103.996094 67.117188 109.273438 M 98.949219 5.6875 C 96.839844 3.046875 93.675781 1.378906 89.894531 1.378906 L 76.089844 0.851562 L 74.503906 46.574219 C 71.867188 41.210938 67.648438 36.992188 62.28125 33.824219 C 57.007812 31.1875 51.113281 29.605469 44.785156 29.078125 C 32.035156 29.078125 21.394531 33.824219 13.480469 43.9375 C 5.566406 54.050781 1.257812 67.328125 0.730469 84.300781 C 0.203125 101.269531 3.367188 114.546875 10.839844 124.660156 C 15.0625 129.9375 19.898438 133.71875 26.757812 136.355469 C 33.089844 138.996094 40.035156 140.050781 46.894531 140.578125 C 59.644531 140.578125 71.867188 137.9375 83.035156 131.519531 C 94.203125 125.101562 100.007812 112.351562 100.535156 93.269531 L 102.644531 15.183594 C 103.171875 12.015625 101.589844 8.851562 98.949219 5.597656 " clip-rule="nonzero"/></clipPath><clipPath id="1562c1ec65"><rect x="0" width="103" y="0" height="141"/></clipPath><clipPath id="26c5dfe636"><path d="M 305.359375 473.824219 L 343.257812 473.824219 L 343.257812 606.867188 L 305.359375 606.867188 Z M 305.359375 606.867188 L 400.503906 606.867188 L 400.503906 640.109375 L 305.359375 640.109375 Z M 305.359375 606.867188 " clip-rule="nonzero"/></clipPath><clipPath id="0bf7360c08"><path d="M 0.359375 0.824219 L 38.257812 0.824219 L 38.257812 133.867188 L 0.359375 133.867188 Z M 0.359375 133.867188 L 95.503906 133.867188 L 95.503906 167.109375 L 0.359375 167.109375 Z M 0.359375 133.867188 " clip-rule="nonzero"/></clipPath><clipPath id="daa8375628"><rect x="0" width="96" y="0" height="168"/></clipPath><clipPath id="6d89b4d488"><path d="M 461 498 L 537.832031 498 L 537.832031 643.109375 L 461 643.109375 Z M 461 498 " clip-rule="nonzero"/></clipPath><clipPath id="bad639058f"><path d="M 476.214844 498.183594 L 511.914062 498.183594 L 511.914062 536.695312 L 533.636719 536.695312 L 533.636719 563.867188 L 511.828125 563.867188 L 511.828125 596.757812 C 511.828125 606.429688 514.289062 611.089844 519.917969 611.089844 C 524.578125 611.089844 528.796875 607.835938 528.796875 607.835938 L 537.679688 636.679688 C 537.679688 636.679688 526.160156 643.097656 511.476562 643.097656 C 483.074219 643.097656 476.214844 621.90625 476.214844 603.613281 L 476.214844 563.867188 L 461.265625 563.867188 L 461.265625 536.695312 L 476.214844 536.695312 Z M 476.214844 498.183594 " clip-rule="nonzero"/></clipPath><clipPath id="f9473e17df"><path d="M 0.0390625 0 L 76.832031 0 L 76.832031 145.109375 L 0.0390625 145.109375 Z M 0.0390625 0 " clip-rule="nonzero"/></clipPath><clipPath id="0f83d1fbd2"><path d="M 15.214844 0.183594 L 50.914062 0.183594 L 50.914062 38.695312 L 72.636719 38.695312 L 72.636719 65.867188 L 50.828125 65.867188 L 50.828125 98.757812 C 50.828125 108.429688 53.289062 113.089844 58.917969 113.089844 C 63.578125 113.089844 67.796875 109.835938 67.796875 109.835938 L 76.679688 138.679688 C 76.679688 138.679688 65.160156 145.097656 50.476562 145.097656 C 22.074219 145.097656 15.214844 123.90625 15.214844 105.613281 L 15.214844 65.867188 L 0.265625 65.867188 L 0.265625 38.695312 L 15.214844 38.695312 Z M 15.214844 0.183594 " clip-rule="nonzero"/></clipPath><clipPath id="12b4061d5c"><rect x="0" width="77" y="0" height="146"/></clipPath><clipPath id="b215d4b9bb"><path d="M 414.207031 472 L 452 472 L 452 641 L 414.207031 641 Z M 414.207031 472 " clip-rule="nonzero"/></clipPath><clipPath id="b3512f132d"><path d="M 414.925781 472.769531 L 434.09375 472.769531 C 438.753906 472.769531 442.976562 474.617188 446.667969 477.871094 C 450.449219 481.648438 451.769531 485.785156 451.769531 490.445312 L 451.769531 501.699219 L 414.925781 501.699219 Z M 414.925781 513.835938 L 434.09375 513.835938 C 438.753906 513.835938 442.976562 515.679688 446.667969 518.933594 C 450.449219 522.714844 451.769531 526.847656 451.769531 531.597656 L 451.769531 640.898438 L 414.925781 640.898438 Z M 414.925781 513.835938 " clip-rule="nonzero"/></clipPath><clipPath id="f0647fa102"><path d="M 0.71875 0.558594 L 37.921875 0.558594 L 37.921875 169 L 0.71875 169 Z M 0.71875 0.558594 " clip-rule="nonzero"/></clipPath><clipPath id="84951c5b61"><path d="M 0.925781 0.769531 L 20.09375 0.769531 C 24.753906 0.769531 28.976562 2.617188 32.667969 5.871094 C 36.449219 9.648438 37.769531 13.785156 37.769531 18.445312 L 37.769531 29.699219 L 0.925781 29.699219 Z M 0.925781 41.835938 L 20.09375 41.835938 C 24.753906 41.835938 28.976562 43.679688 32.667969 46.933594 C 36.449219 50.714844 37.769531 54.847656 37.769531 59.597656 L 37.769531 168.898438 L 0.925781 168.898438 Z M 0.925781 41.835938 " clip-rule="nonzero"/></clipPath><clipPath id="1b3aa54c3e"><rect x="0" width="38" y="0" height="169"/></clipPath></defs><rect x="-150" width="1800" fill="#ffffff" y="-149.999993" height="1799.99992" fill-opacity="1"/><rect x="-150" width="1800" fill="#ffffff" y="-149.999993" height="1799.99992" fill-opacity="1"/><g clip-path="url(#3fa40cffe3)"><g clip-path="url(#7e25ce2634)"><g transform="matrix(1, 0, 0, 1, 132, 331)"><g clip-path="url(#8a8c06e068)"><g clip-path="url(#84393b3a70)"><g clip-path="url(#fec18436ee)"><rect x="-462" width="2160" fill="#80bb4e" height="2159.999904" y="-660.999985" fill-opacity="1"/></g></g></g></g></g></g><g clip-path="url(#e1377ffc88)"><g clip-path="url(#28c8e1e017)"><g transform="matrix(1, 0, 0, 1, 105, 676)"><g clip-path="url(#18d69653c4)"><g clip-path="url(#dbd4ddba76)"><g clip-path="url(#cf111687a8)"><rect x="-435" width="2160" fill="#414149" height="2159.999904" y="-1005.999985" fill-opacity="1"/></g></g></g></g></g></g><g clip-path="url(#2e361bd9f1)"><g clip-path="url(#1384cd348b)"><g transform="matrix(1, 0, 0, 1, 581, 495)"><g clip-path="url(#3fb79aac6c)"><g clip-path="url(#49ab42e0cf)"><g clip-path="url(#046d495ea9)"><rect x="-911" width="2160" fill="#414149" height="2159.999904" y="-824.999985" fill-opacity="1"/></g></g></g></g></g></g><g clip-path="url(#7a4ff8f0a2)"><g clip-path="url(#bf82db3595)"><g transform="matrix(1, 0, 0, 1, 708, 547)"><g clip-path="url(#5ac6619a4f)"><g clip-path="url(#710b3ba70f)"><g clip-path="url(#1140ace87a)"><rect x="-1038" width="2160" fill="#414149" height="2159.999904" y="-876.999985" fill-opacity="1"/></g></g></g></g></g></g><g clip-path="url(#ee590dd3ab)"><g clip-path="url(#f3ed39b01a)"><g transform="matrix(1, 0, 0, 1, 780, 547)"><g clip-path="url(#193b4119c1)"><g clip-path="url(#bcc4124602)"><g clip-path="url(#574fa059e0)"><rect x="-1110" width="2160" fill="#414149" height="2159.999904" y="-876.999985" fill-opacity="1"/></g></g></g></g></g></g><g clip-path="url(#b0c7677390)"><g clip-path="url(#b2a96323d0)"><g transform="matrix(1, 0, 0, 1, 983, 518)"><g clip-path="url(#b17c758a82)"><g clip-path="url(#421f95054b)"><g clip-path="url(#50e103d37e)"><rect x="-1313" width="2160" fill="#414149" height="2159.999904" y="-847.999985" fill-opacity="1"/></g></g></g></g></g></g><g clip-path="url(#1af1ab889c)"><g clip-path="url(#cdf1b2e63a)"><g transform="matrix(1, 0, 0, 1, 1084, 550)"><g clip-path="url(#f7670848d5)"><g clip-path="url(#bf7e9ba3e8)"><g clip-path="url(#6556f62051)"><rect x="-1414" width="2160" fill="#414149" height="2159.999904" y="-879.999985" fill-opacity="1"/></g></g></g></g></g></g><g clip-path="url(#b9002b5667)"><g clip-path="url(#74e837080e)"><g transform="matrix(1, 0, 0, 1, 1192, 547)"><g clip-path="url(#1b1ca52eb4)"><g clip-path="url(#afa62db48c)"><g clip-path="url(#e0c3604f49)"><rect x="-1522" width="2160" fill="#414149" height="2159.999904" y="-876.999985" fill-opacity="1"/></g></g></g></g></g></g><g clip-path="url(#f5e30474c4)"><g clip-path="url(#ceeb3465f8)"><g transform="matrix(1, 0, 0, 1, 876, 515)"><g clip-path="url(#95391242a2)"><g clip-path="url(#97001b2719)"><g clip-path="url(#02d4cf81dc)"><rect x="-1206" width="2160" fill="#80bb4e" height="2159.999904" y="-844.999985" fill-opacity="1"/></g></g></g></g></g></g><g clip-path="url(#ba28c83867)"><g clip-path="url(#ac02623132)"><g transform="matrix(1, 0, 0, 1, 1053, 497)"><g clip-path="url(#92f1fda409)"><g clip-path="url(#6e3b1b5bd8)"><g clip-path="url(#fbe73716ff)"><rect x="-1383" width="2160" fill="#414149" height="2159.999904" y="-826.999985" fill-opacity="1"/></g></g></g></g></g></g><g clip-path="url(#2cc30ea0b0)"><g clip-path="url(#e60ddccb51)"><g transform="matrix(1, 0, 0, 1, 1053, 748)"><g clip-path="url(#ad6d9167db)"><g clip-path="url(#b812dcfb0e)"><g clip-path="url(#03012da690)"><rect x="-1383" width="2160" fill="#414149" height="2159.999904" y="-1077.999985" fill-opacity="1"/></g></g></g></g></g></g><g clip-path="url(#73b1c59c75)"><g clip-path="url(#b95234281a)"><g transform="matrix(1, 0, 0, 1, 780, 620)"><g clip-path="url(#1562c1ec65)"><g clip-path="url(#02faa2d76a)"><g clip-path="url(#d6fb776d94)"><rect x="-1110" width="2160" fill="#414149" height="2159.999904" y="-949.999985" fill-opacity="1"/></g></g></g></g></g></g><g clip-path="url(#26c5dfe636)"><g transform="matrix(1, 0, 0, 1, 305, 473)"><g clip-path="url(#daa8375628)"><g clip-path="url(#0bf7360c08)"><rect x="-635" width="2160" fill="#80bb4e" height="2159.999904" y="-802.999985" fill-opacity="1"/></g></g></g></g><g clip-path="url(#6d89b4d488)"><g clip-path="url(#bad639058f)"><g transform="matrix(1, 0, 0, 1, 461, 498)"><g clip-path="url(#12b4061d5c)"><g clip-path="url(#f9473e17df)"><g clip-path="url(#0f83d1fbd2)"><rect x="-791" width="2160" fill="#80bb4e" height="2159.999904" y="-827.999985" fill-opacity="1"/></g></g></g></g></g></g><g clip-path="url(#b215d4b9bb)"><g clip-path="url(#b3512f132d)"><g transform="matrix(1, 0, 0, 1, 414, 472)"><g clip-path="url(#1b3aa54c3e)"><g clip-path="url(#f0647fa102)"><g clip-path="url(#84951c5b61)"><rect x="-744" width="2160" fill="#80bb4e" height="2159.999904" y="-801.999985" fill-opacity="1"/></g></g></g></g></g></g><g fill="#414149" fill-opacity="1"><g transform="translate(880.38276, 750.697307)"><g><path d="M 99.59375 -39.90625 L 35.609375 -39.90625 C 35.609375 -33.707031 37.613281 -29.117188 41.625 -26.140625 C 45.632812 -23.160156 49.992188 -21.671875 54.703125 -21.671875 C 59.628906 -21.671875 63.523438 -22.328125 66.390625 -23.640625 C 69.253906 -24.960938 72.523438 -27.570312 76.203125 -31.46875 L 98.21875 -20.46875 C 89.039062 -5.101562 73.785156 2.578125 52.453125 2.578125 C 39.160156 2.578125 27.753906 -1.976562 18.234375 -11.09375 C 8.710938 -20.207031 3.953125 -31.1875 3.953125 -44.03125 C 3.953125 -56.875 8.710938 -67.878906 18.234375 -77.046875 C 27.753906 -86.222656 39.160156 -90.8125 52.453125 -90.8125 C 66.441406 -90.8125 77.820312 -86.769531 86.59375 -78.6875 C 95.375 -70.601562 99.765625 -59.050781 99.765625 -44.03125 C 99.765625 -41.96875 99.707031 -40.59375 99.59375 -39.90625 Z M 36.46875 -56.765625 L 70 -56.765625 C 69.3125 -61.347656 67.503906 -64.867188 64.578125 -67.328125 C 61.660156 -69.796875 57.90625 -71.03125 53.3125 -71.03125 C 48.269531 -71.03125 44.257812 -69.710938 41.28125 -67.078125 C 38.300781 -64.441406 36.695312 -61.003906 36.46875 -56.765625 Z M 36.46875 -56.765625 "/></g></g></g><g fill="#414149" fill-opacity="1"><g transform="translate(970.508202, 750.697307)"><g><path d="M 48.671875 -90.8125 C 53.722656 -90.8125 58.710938 -90.238281 63.640625 -89.09375 C 68.566406 -87.945312 72.234375 -86.800781 74.640625 -85.65625 L 78.265625 -83.9375 L 68.28125 -63.984375 C 61.40625 -67.648438 54.867188 -69.484375 48.671875 -69.484375 C 45.234375 -69.484375 42.796875 -69.109375 41.359375 -68.359375 C 39.929688 -67.617188 39.21875 -66.21875 39.21875 -64.15625 C 39.21875 -63.695312 39.273438 -63.238281 39.390625 -62.78125 C 39.503906 -62.320312 39.734375 -61.890625 40.078125 -61.484375 C 40.421875 -61.085938 40.734375 -60.742188 41.015625 -60.453125 C 41.304688 -60.171875 41.796875 -59.859375 42.484375 -59.515625 C 43.171875 -59.171875 43.710938 -58.910156 44.109375 -58.734375 C 44.515625 -58.566406 45.175781 -58.3125 46.09375 -57.96875 C 47.007812 -57.625 47.695312 -57.363281 48.15625 -57.1875 C 48.613281 -57.019531 49.382812 -56.765625 50.46875 -56.421875 C 51.5625 -56.078125 52.394531 -55.847656 52.96875 -55.734375 C 56.53125 -54.703125 59.628906 -53.550781 62.265625 -52.28125 C 64.898438 -51.019531 67.675781 -49.300781 70.59375 -47.125 C 73.519531 -44.945312 75.785156 -42.195312 77.390625 -38.875 C 79.003906 -35.550781 79.8125 -31.765625 79.8125 -27.515625 C 79.8125 -7.453125 65.878906 2.578125 38.015625 2.578125 C 31.703125 2.578125 25.707031 1.601562 20.03125 -0.34375 C 14.363281 -2.289062 10.265625 -4.238281 7.734375 -6.1875 L 3.953125 -9.28125 L 16.34375 -30.09375 C 17.257812 -29.289062 18.460938 -28.34375 19.953125 -27.25 C 21.441406 -26.164062 24.132812 -24.675781 28.03125 -22.78125 C 31.9375 -20.894531 35.320312 -19.953125 38.1875 -19.953125 C 44.488281 -19.953125 47.640625 -22.070312 47.640625 -26.3125 C 47.640625 -28.257812 46.835938 -29.78125 45.234375 -30.875 C 43.628906 -31.96875 40.90625 -33.203125 37.0625 -34.578125 C 33.21875 -35.953125 30.207031 -37.210938 28.03125 -38.359375 C 22.53125 -41.222656 18.171875 -44.457031 14.953125 -48.0625 C 11.742188 -51.675781 10.140625 -56.46875 10.140625 -62.4375 C 10.140625 -71.382812 13.609375 -78.347656 20.546875 -83.328125 C 27.484375 -88.316406 36.859375 -90.8125 48.671875 -90.8125 Z M 48.671875 -90.8125 "/></g></g></g><g fill="#414149" fill-opacity="1"><g transform="translate(1089.461886, 750.697307)"><g><path d="M 6.359375 21.671875 L 31.296875 9.453125 C 35.890625 17.023438 43.863281 20.8125 55.21875 20.8125 C 60.488281 20.8125 65.390625 19.117188 69.921875 15.734375 C 74.453125 12.347656 76.71875 7.160156 76.71875 0.171875 L 76.71875 -6.359375 C 71.320312 -0.398438 61.6875 2.578125 47.8125 2.578125 C 35.082031 2.578125 24.585938 -1.921875 16.328125 -10.921875 C 8.078125 -19.921875 3.953125 -30.957031 3.953125 -44.03125 C 3.953125 -57.101562 8.078125 -68.164062 16.328125 -77.21875 C 24.585938 -86.28125 35.082031 -90.8125 47.8125 -90.8125 C 59.164062 -90.8125 68.628906 -87.316406 76.203125 -80.328125 L 76.71875 -80.328125 L 76.71875 -88.234375 L 107.15625 -88.234375 L 107.15625 2.40625 C 107.15625 16.738281 102.394531 27.800781 92.875 35.59375 C 83.363281 43.394531 70.8125 47.296875 55.21875 47.296875 C 29.988281 47.296875 13.703125 38.753906 6.359375 21.671875 Z M 42.21875 -58.984375 C 38.269531 -55.085938 36.296875 -50.101562 36.296875 -44.03125 C 36.296875 -37.957031 38.1875 -33 41.96875 -29.15625 C 45.75 -25.3125 50.738281 -23.390625 56.9375 -23.390625 C 62.894531 -23.390625 67.796875 -25.335938 71.640625 -29.234375 C 75.484375 -33.140625 77.40625 -38.070312 77.40625 -44.03125 C 77.40625 -50.101562 75.425781 -55.085938 71.46875 -58.984375 C 67.507812 -62.890625 62.664062 -64.84375 56.9375 -64.84375 C 51.082031 -64.84375 46.175781 -62.890625 42.21875 -58.984375 Z M 42.21875 -58.984375 "/></g></g></g><g fill="#414149" fill-opacity="1"><g transform="translate(1193.347016, 750.697307)"><g><path d="M 10.3125 0 L 10.3125 -88.234375 L 40.765625 -88.234375 L 40.765625 -78.953125 L 41.109375 -78.953125 C 49.015625 -86.859375 57.441406 -90.8125 66.390625 -90.8125 C 70.742188 -90.8125 75.070312 -90.238281 79.375 -89.09375 C 83.675781 -87.945312 87.804688 -86.171875 91.765625 -83.765625 C 95.722656 -81.359375 98.929688 -77.945312 101.390625 -73.53125 C 103.859375 -69.113281 105.09375 -63.984375 105.09375 -58.140625 L 105.09375 0 L 74.640625 0 L 74.640625 -49.875 C 74.640625 -54.46875 73.175781 -58.484375 70.25 -61.921875 C 67.332031 -65.359375 63.523438 -67.078125 58.828125 -67.078125 C 54.234375 -67.078125 50.070312 -65.300781 46.34375 -61.75 C 42.625 -58.195312 40.765625 -54.238281 40.765625 -49.875 L 40.765625 0 Z M 10.3125 0 "/></g></g></g><g fill="#414149" fill-opacity="1"><g transform="translate(1293.448226, 750.697307)"><g><path d="M 48.671875 -90.8125 C 53.722656 -90.8125 58.710938 -90.238281 63.640625 -89.09375 C 68.566406 -87.945312 72.234375 -86.800781 74.640625 -85.65625 L 78.265625 -83.9375 L 68.28125 -63.984375 C 61.40625 -67.648438 54.867188 -69.484375 48.671875 -69.484375 C 45.234375 -69.484375 42.796875 -69.109375 41.359375 -68.359375 C 39.929688 -67.617188 39.21875 -66.21875 39.21875 -64.15625 C 39.21875 -63.695312 39.273438 -63.238281 39.390625 -62.78125 C 39.503906 -62.320312 39.734375 -61.890625 40.078125 -61.484375 C 40.421875 -61.085938 40.734375 -60.742188 41.015625 -60.453125 C 41.304688 -60.171875 41.796875 -59.859375 42.484375 -59.515625 C 43.171875 -59.171875 43.710938 -58.910156 44.109375 -58.734375 C 44.515625 -58.566406 45.175781 -58.3125 46.09375 -57.96875 C 47.007812 -57.625 47.695312 -57.363281 48.15625 -57.1875 C 48.613281 -57.019531 49.382812 -56.765625 50.46875 -56.421875 C 51.5625 -56.078125 52.394531 -55.847656 52.96875 -55.734375 C 56.53125 -54.703125 59.628906 -53.550781 62.265625 -52.28125 C 64.898438 -51.019531 67.675781 -49.300781 70.59375 -47.125 C 73.519531 -44.945312 75.785156 -42.195312 77.390625 -38.875 C 79.003906 -35.550781 79.8125 -31.765625 79.8125 -27.515625 C 79.8125 -7.453125 65.878906 2.578125 38.015625 2.578125 C 31.703125 2.578125 25.707031 1.601562 20.03125 -0.34375 C 14.363281 -2.289062 10.265625 -4.238281 7.734375 -6.1875 L 3.953125 -9.28125 L 16.34375 -30.09375 C 17.257812 -29.289062 18.460938 -28.34375 19.953125 -27.25 C 21.441406 -26.164062 24.132812 -24.675781 28.03125 -22.78125 C 31.9375 -20.894531 35.320312 -19.953125 38.1875 -19.953125 C 44.488281 -19.953125 47.640625 -22.070312 47.640625 -26.3125 C 47.640625 -28.257812 46.835938 -29.78125 45.234375 -30.875 C 43.628906 -31.96875 40.90625 -33.203125 37.0625 -34.578125 C 33.21875 -35.953125 30.207031 -37.210938 28.03125 -38.359375 C 22.53125 -41.222656 18.171875 -44.457031 14.953125 -48.0625 C 11.742188 -51.675781 10.140625 -56.46875 10.140625 -62.4375 C 10.140625 -71.382812 13.609375 -78.347656 20.546875 -83.328125 C 27.484375 -88.316406 36.859375 -90.8125 48.671875 -90.8125 Z M 48.671875 -90.8125 "/></g></g></g></svg>